<?xml version="1.0" encoding="iso-8859-1"?>
<!-- Generator: Adobe Illustrator 18.1.1, SVG Export Plug-In . SVG Version: 6.00 Build 0)  -->
<svg version="1.1" id="Capa_1" xmlns="http://www.w3.org/2000/svg" xmlns:xlink="http://www.w3.org/1999/xlink" x="0px" y="0px"
	 viewBox="0 0 55.334 55.334" style="enable-background:new 0 0 55.334 55.334;" xml:space="preserve">
<g>
	<path style="fill:#010002;" d="M27.667,0C12.411,0,0,12.411,0,27.667s12.411,27.667,27.667,27.667s27.667-12.411,27.667-27.667
		S42.923,0,27.667,0z M27.5,25.833c-2.481,0-4.5-2.019-4.5-4.5s2.019-4.5,4.5-4.5s4.5,2.019,4.5,4.5S29.981,25.833,27.5,25.833z
		 M14.167,42.059c0-4.64,4.072-8.559,8.892-8.559h9.216c4.82,0,8.892,3.919,8.892,8.559v3.805c-3.774,2.807-8.446,4.471-13.5,4.471
		s-9.726-1.664-13.5-4.471V42.059z M33.64,28.57c2.052-1.744,3.36-4.339,3.36-7.237c0-5.238-4.262-9.5-9.5-9.5s-9.5,4.262-9.5,9.5
		c0,2.92,1.326,5.534,3.406,7.278c-6.372,0.778-11.565,5.956-12.173,12.222C6.573,37.119,5,32.575,5,27.667
		C5,15.168,15.168,5,27.667,5s22.667,10.168,22.667,22.667c0,4.907-1.573,9.451-4.233,13.166
		C45.484,34.472,40.144,29.222,33.64,28.57z"/>
</g>
<g>
</g>
<g>
</g>
<g>
</g>
<g>
</g>
<g>
</g>
<g>
</g>
<g>
</g>
<g>
</g>
<g>
</g>
<g>
</g>
<g>
</g>
<g>
</g>
<g>
</g>
<g>
</g>
<g>
</g>
</svg>
